<svg id="Group_5405" data-name="Group 5405" xmlns="http://www.w3.org/2000/svg" width="17.36" height="15.188" viewBox="0 0 17.36 15.188">
  <g id="Group_5403" data-name="Group 5403">
    <g id="Group_5402" data-name="Group 5402">
      <path id="Path_34385" data-name="Path 34385" d="M-392.415,696.809a4.591,4.591,0,0,1-.048-.659c0-2.794,2.513-5.075,5.635-5.151a5.779,5.779,0,0,0-5.973-5.016,5.727,5.727,0,0,0-5.992,5.419,5.237,5.237,0,0,0,2.256,4.236l0,0a.847.847,0,0,1,.285.87c-.116.594-.337,1.378-.337,1.378l1.536-.968a1.594,1.594,0,0,1,1-.216c.082.016.164.03.248.042l.024.005-.005,0a6.629,6.629,0,0,0,.992.075C-392.672,696.822-392.543,696.817-392.415,696.809Z" transform="translate(398.793 -685.983)" fill="#36b921"/>
    </g>
    <path id="Path_34386" data-name="Path 34386" d="M-385.992,699.341a.706.706,0,0,1-.7.713.705.705,0,0,1-.7-.713.705.705,0,0,1,.7-.712A.705.705,0,0,1-385.992,699.341Z" transform="translate(390.599 -694.994)" fill="#fff"/>
    <path id="Path_34387" data-name="Path 34387" d="M-369.909,699.341a.705.705,0,0,1-.7.713.705.705,0,0,1-.7-.713.705.705,0,0,1,.7-.712A.705.705,0,0,1-369.909,699.341Z" transform="translate(379.045 -694.994)" fill="#fff"/>
  </g>
  <g id="Group_5404" data-name="Group 5404" transform="translate(6.888 5.583)">
    <path id="Path_34388" data-name="Path 34388" d="M-367.285,714.367a1.838,1.838,0,0,1,.906.207l.706.428a.028.028,0,0,0,.015.008c.019,0,.029-.064-.17-.547a.961.961,0,0,1,.271-1.094h0a4.338,4.338,0,0,0,1.7-3.381c0-2.532-2.344-4.585-5.236-4.585s-5.236,2.052-5.236,4.585,2.344,4.585,5.236,4.585a5.922,5.922,0,0,0,1.478-.187l0,0A2.5,2.5,0,0,1-367.285,714.367Z" transform="translate(374.33 -705.405)" fill="#36b921"/>
    <path id="Path_34389" data-name="Path 34389" d="M-352.853,715.371a.6.6,0,0,0,.593.605.6.6,0,0,0,.592-.605.6.6,0,0,0-.592-.605A.6.6,0,0,0-352.853,715.371Z" transform="translate(358.901 -712.075)" fill="#fff"/>
    <path id="Path_34390" data-name="Path 34390" d="M-365.974,715.371a.6.6,0,0,0,.592.605.6.6,0,0,0,.593-.605.6.6,0,0,0-.593-.605A.6.6,0,0,0-365.974,715.371Z" transform="translate(368.327 -712.075)" fill="#fff"/>
  </g>
</svg>
