

<svg id="share-alt" xmlns="http://www.w3.org/2000/svg" xmlns:xlink="http://www.w3.org/1999/xlink" width="16.8" height="16.8" 
className="bi bi-collection" fill="#4F97F4" viewBox="0 0 16.8 16.8">
  <rect id="Background-2" data-name="Background" width="16.8" height="16.8" fill="none"/>
  <g id="share-alt-2" data-name="share-alt" clip-path="url(#clip-path)">
    <g id="Group_5152" data-name="Group 5152" transform="translate(-231.453 -690.805)">
      <path id="Path_34288" data-name="Path 34288" d="M259.015,692.749h-3.154a1.532,1.532,0,0,0-1.529,1.528v3.155a1.532,1.532,0,0,0,1.529,1.527h3.154a1.532,1.532,0,0,0,1.529-1.528v-3.155A1.532,1.532,0,0,0,259.015,692.749Zm0,4.946H255.86a.264.264,0,0,1-.264-.264v-3.154a.265.265,0,0,1,.264-.264h3.155a.264.264,0,0,1,.264.263v3.154A.265.265,0,0,1,259.015,697.7Z" transform="translate(-14.173 -0.001)" fill="#4F97F4"/>
      <path id="Path_34289" data-name="Path 34289" d="M238.018,713.374h-3.155a1.533,1.533,0,0,0-1.528,1.529v3.154a1.533,1.533,0,0,0,1.528,1.529h3.155a1.532,1.532,0,0,0,1.528-1.529V714.9A1.532,1.532,0,0,0,238.018,713.374Zm.263,4.683a.265.265,0,0,1-.263.264h-3.155a.264.264,0,0,1-.263-.264V714.9a.265.265,0,0,1,.264-.265h3.154a.265.265,0,0,1,.264.265Z" transform="translate(0 -13.923)" fill="#4F97F4"/>
      <path id="Path_34290" data-name="Path 34290" d="M259.016,713.374h-3.155a1.532,1.532,0,0,0-1.528,1.529v3.154a1.532,1.532,0,0,0,1.528,1.529h3.155a1.532,1.532,0,0,0,1.528-1.529V714.9A1.532,1.532,0,0,0,259.016,713.374Zm.264,4.683a.265.265,0,0,1-.264.264h-3.154a.265.265,0,0,1-.264-.264V714.9a.265.265,0,0,1,.264-.265h3.154a.265.265,0,0,1,.264.265Z" transform="translate(-14.173 -13.923)" fill="#4F97F4"/>
      <path id="Path_34291" data-name="Path 34291" d="M238.018,692.747h-3.155a1.532,1.532,0,0,0-1.528,1.529v3.154a1.532,1.532,0,0,0,1.528,1.529h3.155a1.532,1.532,0,0,0,1.528-1.529v-3.154A1.532,1.532,0,0,0,238.018,692.747Zm.263,4.683a.264.264,0,0,1-.263.264h-3.155a.264.264,0,0,1-.263-.264v-3.154a.265.265,0,0,1,.264-.264h3.154a.265.265,0,0,1,.264.264Z" transform="translate(0 0)" fill="#4F97F4"/>
    </g>
  </g>
</svg>
