<svg xmlns="http://www.w3.org/2000/svg" width="30.569" height="30.57" viewBox="0 0 30.569 30.57">
  <g id="noun_notice_2918258" transform="translate(-2.5 -2.5)">
    <g id="Group_6267" data-name="Group 6267" transform="translate(2.5 2.5)">
      <path id="Path_34663" data-name="Path 34663" d="M46.541,35.415a1.648,1.648,0,0,0,1.641-1.641V26.341a1.641,1.641,0,0,0-3.282,0v7.465A1.642,1.642,0,0,0,46.541,35.415Z" transform="translate(-31.256 -17.556)" fill="#f1b44c"/>
      <circle id="Ellipse_1657" data-name="Ellipse 1657" cx="1.995" cy="1.995" r="1.995" transform="translate(13.29 19.436)" fill="#f1b44c"/>
      <path id="Path_34664" data-name="Path 34664" d="M25.668,2.5H9.9A7.4,7.4,0,0,0,2.5,9.9V25.668a7.4,7.4,0,0,0,7.4,7.4H25.668a7.4,7.4,0,0,0,7.4-7.4V9.9A7.4,7.4,0,0,0,25.668,2.5Zm4.408,23.168a4.395,4.395,0,0,1-4.408,4.408H9.9a4.395,4.395,0,0,1-4.408-4.408V9.9A4.395,4.395,0,0,1,9.9,5.493H25.668A4.415,4.415,0,0,1,30.077,9.9Z" transform="translate(-2.5 -2.5)" fill="#f1b44c"/>
    </g>
  </g>
</svg>
