<svg id="facebook-messenger" xmlns="http://www.w3.org/2000/svg"  width="17" height="17" viewBox="0 0 17 17">
  <path id="Path" d="M3.091,14.191v3.075l2.817-1.635a8.794,8.794,0,0,0,2.485.356,8.2,8.2,0,0,0,8.393-7.993A8.2,8.2,0,0,0,8.393,0,8.2,8.2,0,0,0,0,7.993,7.839,7.839,0,0,0,3.091,14.191Z" transform="translate(0 0)" fill="#1c99ff"/>
  <path id="Path-2" data-name="Path" d="M4.526,0,0,4.892,4.119,2.585,6.271,4.892,10.772,0,6.7,2.267,4.526,0Z" transform="translate(2.97 5.804)" fill="#fff"/>
</svg>
