<svg xmlns="http://www.w3.org/2000/svg"  width="20" height="20" viewBox="0 0 46 46">
  <defs>
    <radialGradient id="radial-gradient" cx="0.192" cy="0.994" r="1.09" gradientUnits="objectBoundingBox">
      <stop offset="0" stop-color="#09f"/>
      <stop offset="0.61" stop-color="#a033ff"/>
      <stop offset="0.935" stop-color="#ff5280"/>
      <stop offset="1" stop-color="#ff7061"/>
    </radialGradient>
  </defs>
  <g id="logo_1_" transform="translate(0 -0.214)">
    <rect id="bounding-box" width="20" height="20" transform="translate(0 0.214)" fill="rgba(255,255,255,0)"/>
    <g id="logo" transform="translate(6.475 5.879)">
      <path id="Path" d="M17.01,0C7.429,0,0,7.021,0,16.5A16.145,16.145,0,0,0,5.341,28.7a1.344,1.344,0,0,1,.455.97L5.89,32.7a1.36,1.36,0,0,0,1.909,1.2l3.376-1.488a1.367,1.367,0,0,1,.91-.068A18.607,18.607,0,0,0,17.01,33c9.581,0,17.01-7.021,17.01-16.5S26.591,0,17.01,0Z" fill="url(#radial-gradient)"/>
      <path id="Path_1_" d="M156.833,279.143l5-7.927a2.553,2.553,0,0,1,3.691-.68l3.976,2.981a1.021,1.021,0,0,0,1.229,0l5.367-4.074a.81.81,0,0,1,1.174,1.076l-5,7.922a2.553,2.553,0,0,1-3.691.68l-3.976-2.981a1.021,1.021,0,0,0-1.229,0L158,280.215A.806.806,0,0,1,156.833,279.143Z" transform="translate(-150.037 -257.817)" fill="#fff"/>
    </g>
  </g>
</svg>
