<svg xmlns="http://www.w3.org/2000/svg" xmlns:xlink="http://www.w3.org/1999/xlink" width="20" height="20"  viewBox="0 0 46 46">
  <defs>
    <clipPath id="clip-path">
      <rect id="Rectangle_4603" data-name="Rectangle 4603" width="46" height="46"  transform="translate(0 0.293)" fill="none"/>
    </clipPath>
  </defs>
  <g id="Mask_Group_133" data-name="Mask Group 133" transform="translate(0 -0.293)" clip-path="url(#clip-path)">
    <g id="Group_6986" data-name="Group 6986" transform="translate(4.85 6.843)">
      <g id="Group_6984" data-name="Group 6984">
        <g id="Group_6983" data-name="Group 6983">
          <path id="Path_36799" data-name="Path 36799" d="M-385.458,708.62a9.608,9.608,0,0,1-.1-1.379c0-5.843,5.255-10.612,11.782-10.771-.478-5.864-5.885-10.488-12.489-10.488-6.919,0-12.528,5.074-12.528,11.331a10.949,10.949,0,0,0,4.717,8.857l-.01,0a1.772,1.772,0,0,1,.6,1.82c-.243,1.242-.705,2.881-.705,2.881l3.212-2.023a3.333,3.333,0,0,1,2.088-.451c.171.033.343.062.518.089l.049.011-.011,0a13.85,13.85,0,0,0,2.074.157C-385.994,708.646-385.725,708.636-385.458,708.62Z" transform="translate(398.793 -685.983)" fill="#36b921"/>
        </g>
        <path id="Path_36800" data-name="Path 36800" d="M-384.468,700.118a1.476,1.476,0,0,1-1.46,1.491,1.475,1.475,0,0,1-1.459-1.491,1.474,1.474,0,0,1,1.459-1.49A1.475,1.475,0,0,1-384.468,700.118Z" transform="translate(394.103 -691.029)" fill="#fff"/>
        <path id="Path_36801" data-name="Path 36801" d="M-368.386,700.118a1.475,1.475,0,0,1-1.46,1.491,1.475,1.475,0,0,1-1.46-1.491,1.474,1.474,0,0,1,1.46-1.49A1.474,1.474,0,0,1-368.386,700.118Z" transform="translate(387.489 -691.029)" fill="#fff"/>
      </g>
      <g id="Group_6985" data-name="Group 6985" transform="translate(14.403 11.673)">
        <path id="Path_36802" data-name="Path 36802" d="M-359.6,724.145a3.844,3.844,0,0,1,1.9.433l1.476.895a.059.059,0,0,0,.032.017c.04,0,.061-.134-.355-1.144a2.01,2.01,0,0,1,.566-2.286h0a9.07,9.07,0,0,0,3.555-7.069c0-5.295-4.9-9.586-10.948-9.586s-10.948,4.291-10.948,9.586,4.9,9.586,10.948,9.586a12.381,12.381,0,0,0,3.091-.39l-.01.005A5.222,5.222,0,0,1-359.6,724.145Z" transform="translate(374.33 -705.405)" fill="#36b921"/>
        <path id="Path_36803" data-name="Path 36803" d="M-352.853,716.031a1.253,1.253,0,0,0,1.239,1.266,1.252,1.252,0,0,0,1.239-1.266,1.252,1.252,0,0,0-1.239-1.265A1.252,1.252,0,0,0-352.853,716.031Z" transform="translate(365.498 -709.14)" fill="#fff"/>
        <path id="Path_36804" data-name="Path 36804" d="M-365.974,716.031a1.252,1.252,0,0,0,1.239,1.266,1.253,1.253,0,0,0,1.239-1.266,1.252,1.252,0,0,0-1.239-1.265A1.252,1.252,0,0,0-365.974,716.031Z" transform="translate(370.894 -709.14)" fill="#fff"/>
      </g>
    </g>
  </g>
</svg>
