<svg xmlns="http://www.w3.org/2000/svg"  width="17" height="17" viewBox="0 0 22 22">
  
  <g id="Mask_Group_83" data-name="Mask Group 83" transform="translate(-934 -296)" clip-path="url(#clip-path)">
    <g id="Group_6241" data-name="Group 6241" transform="translate(936.759 298.759)">
      <g id="Group_6240" data-name="Group 6240" transform="translate(0 0)">
        <g id="Group_6239" data-name="Group 6239">
          <g id="Group_6238" data-name="Group 6238">
            <path id="Path_34655" data-name="Path 34655" d="M-188.5,677.864a8.25,8.25,0,0,0-8.241,8.24,8.176,8.176,0,0,0,1.316,4.466l-1.252,2.758a.719.719,0,0,0,.108.764.72.72,0,0,0,.548.253.719.719,0,0,0,.19-.026l3.449-.946a8.24,8.24,0,0,0,3.882.972,8.25,8.25,0,0,0,8.241-8.241A8.25,8.25,0,0,0-188.5,677.864Zm0,15.042a6.8,6.8,0,0,1-3.425-.926.718.718,0,0,0-.363-.1.727.727,0,0,0-.19.026l-2.253.618.785-1.729a.72.72,0,0,0-.072-.719A6.751,6.751,0,0,1-195.3,686.1a6.809,6.809,0,0,1,6.8-6.8,6.809,6.809,0,0,1,6.8,6.8A6.809,6.809,0,0,1-188.5,692.906Z" transform="translate(196.741 -677.864)" fill="#45c022"/>
          </g>
          <path id="Shape" d="M5.805,10.083H4.291a.5.5,0,0,1-.479-.343l-.318-.953-.9.448a.507.507,0,0,1-.223.052.5.5,0,0,1-.357-.148L.943,8.067a.5.5,0,0,1-.1-.575l.449-.9L.343,6.277A.5.5,0,0,1,0,5.8V4.285a.5.5,0,0,1,.343-.474L1.3,3.494.847,2.6a.5.5,0,0,1,.1-.58L2.017.943a.5.5,0,0,1,.575-.1l.9.449L3.807.343A.5.5,0,0,1,4.284,0H5.8a.5.5,0,0,1,.474.343l.318.953.9-.449A.507.507,0,0,1,7.71.795a.5.5,0,0,1,.357.148L9.141,2.017a.5.5,0,0,1,.1.575l-.448.9.953.318a.5.5,0,0,1,.343.479V5.8a.5.5,0,0,1-.343.474l-.953.318.448.9a.5.5,0,0,1-.1.58L8.067,9.141a.5.5,0,0,1-.57.1l-.9-.448-.317.953A.5.5,0,0,1,5.805,10.083ZM3.488,7.773a1.008,1.008,0,0,1,.959.7l.2.6h.8l.2-.6a1.007,1.007,0,0,1,1.406-.585l.56.3.554-.555-.287-.575A1.008,1.008,0,0,1,8.47,5.637l.6-.2v-.8l-.6-.2a1.008,1.008,0,0,1-.585-1.407l.3-.559-.555-.555L7.058,2.2a1.008,1.008,0,0,1-1.422-.585l-.2-.6H4.649l-.2.6A1.008,1.008,0,0,1,3.025,2.2l-.559-.288-.555.555.288.559a1.008,1.008,0,0,1-.585,1.422l-.6.2v.787l.6.2A1.008,1.008,0,0,1,2.2,7.058l-.3.56.554.554.575-.287A1.012,1.012,0,0,1,3.488,7.773Zm1.554-.715A2.017,2.017,0,1,1,7.058,5.042,2.019,2.019,0,0,1,5.042,7.058Zm0-3.025A1.008,1.008,0,1,0,6.05,5.042,1.009,1.009,0,0,0,5.042,4.033Z" transform="translate(3.198 3.2)" fill="#45c022"/>
        </g>
      </g>
    </g>
  </g>
</svg>
