<svg xmlns="http://www.w3.org/2000/svg"  width="17" height="17" viewBox="0 0 17 17">
  <g id="Group_5400" data-name="Group 5400" transform="translate(0 0)">
    <g id="Group_5399" data-name="Group 5399">
      <g id="Group_5397" data-name="Group 5397">
        <path id="Path_34383" data-name="Path 34383" d="M-188.5,677.864a8.25,8.25,0,0,0-8.241,8.24,8.176,8.176,0,0,0,1.316,4.466l-1.252,2.758a.719.719,0,0,0,.108.765.72.72,0,0,0,.548.253.719.719,0,0,0,.19-.026l3.449-.946a8.24,8.24,0,0,0,3.882.972,8.25,8.25,0,0,0,8.241-8.241A8.25,8.25,0,0,0-188.5,677.864Zm0,15.042a6.8,6.8,0,0,1-3.425-.926.718.718,0,0,0-.363-.1.727.727,0,0,0-.19.026l-2.253.618.785-1.729a.72.72,0,0,0-.072-.719A6.751,6.751,0,0,1-195.3,686.1a6.809,6.809,0,0,1,6.8-6.8,6.809,6.809,0,0,1,6.8,6.8A6.81,6.81,0,0,1-188.5,692.906Z" transform="translate(196.741 -677.864)" fill="#45c022"/>
      </g>
      <g id="Group_5398" data-name="Group 5398" transform="translate(5.043 5.219)">
        <path id="Path_34384" data-name="Path 34384" d="M-173.215,700.652a1.133,1.133,0,0,0-.966-.218c-.251.1-.411.5-.574.7a.241.241,0,0,1-.311.068,4.376,4.376,0,0,1-2.184-1.871.268.268,0,0,1,.034-.366,1.476,1.476,0,0,0,.4-.644,1.409,1.409,0,0,0-.177-.762,1.807,1.807,0,0,0-.563-.848.771.771,0,0,0-.838.124,1.7,1.7,0,0,0-.589,1.347,1.912,1.912,0,0,0,.053.427,3.535,3.535,0,0,0,.41.945,7.451,7.451,0,0,0,.428.651,6.606,6.606,0,0,0,1.857,1.724,5.609,5.609,0,0,0,1.158.551,2.571,2.571,0,0,0,1.348.213,1.631,1.631,0,0,0,1.222-.909.79.79,0,0,0,.057-.464C-172.524,701-172.956,700.806-173.215,700.652Z" transform="translate(178.987 -696.631)" fill="#45c022"/>
      </g>
    </g>
  </g>
</svg>
