<svg xmlns="http://www.w3.org/2000/svg" xmlns:xlink="http://www.w3.org/1999/xlink" width="20" height="20"  viewBox="0 0 46 47">
  <defs>
    <clipPath id="clip-path">
      <rect id="Rectangle_4601" data-name="Rectangle 4601" width="46" height="47" transform="translate(0.5)" fill="none"/>
    </clipPath>
  </defs>
  <g id="Mask_Group_131" data-name="Mask Group 131" transform="translate(-0.5)" clip-path="url(#clip-path)">
    <g id="Group_6978" data-name="Group 6978" transform="translate(5.832 5.737)">
      <g id="Group_6977" data-name="Group 6977" transform="translate(0 0)">
        <g id="Group_6976" data-name="Group 6976">
          <g id="Group_6974" data-name="Group 6974">
            <path id="Path_36796" data-name="Path 36796" d="M-179.323,677.864a17.437,17.437,0,0,0-17.418,17.417,17.281,17.281,0,0,0,2.782,9.44l-2.646,5.829a1.52,1.52,0,0,0,.228,1.616,1.521,1.521,0,0,0,1.157.534,1.513,1.513,0,0,0,.4-.054l7.29-2a17.415,17.415,0,0,0,8.2,2.055A17.438,17.438,0,0,0-161.9,695.281,17.438,17.438,0,0,0-179.323,677.864Zm0,31.794a14.363,14.363,0,0,1-7.239-1.957,1.518,1.518,0,0,0-.767-.208,1.53,1.53,0,0,0-.4.054l-4.763,1.307,1.659-3.655a1.522,1.522,0,0,0-.152-1.519,14.268,14.268,0,0,1-2.712-8.4,14.392,14.392,0,0,1,14.376-14.375,14.392,14.392,0,0,1,14.376,14.375A14.393,14.393,0,0,1-179.323,709.658Z" transform="translate(196.741 -677.864)" fill="#45c022"/>
          </g>
          <g id="Group_6975" data-name="Group 6975" transform="translate(10.659 11.032)">
            <path id="Path_36797" data-name="Path 36797" d="M-166.787,705.13a2.4,2.4,0,0,0-2.042-.46c-.53.217-.869,1.047-1.213,1.471a.509.509,0,0,1-.658.143,9.251,9.251,0,0,1-4.616-3.954.566.566,0,0,1,.071-.773,3.119,3.119,0,0,0,.839-1.362,2.979,2.979,0,0,0-.375-1.611,3.819,3.819,0,0,0-1.19-1.793,1.629,1.629,0,0,0-1.77.263,3.592,3.592,0,0,0-1.246,2.847,4.039,4.039,0,0,0,.112.9,7.469,7.469,0,0,0,.867,2,15.762,15.762,0,0,0,.9,1.376,13.961,13.961,0,0,0,3.924,3.644,11.863,11.863,0,0,0,2.447,1.164,5.436,5.436,0,0,0,2.849.45,3.448,3.448,0,0,0,2.583-1.922,1.669,1.669,0,0,0,.12-.98C-165.327,705.857-166.241,705.456-166.787,705.13Z" transform="translate(178.987 -696.631)" fill="#45c022"/>
          </g>
        </g>
      </g>
    </g>
  </g>
</svg>
