<svg xmlns="http://www.w3.org/2000/svg" width="21.609" height="15.819" viewBox="0 0 21.609 15.819">
  <g id="Group_4975" data-name="Group 4975" transform="translate(-674.768 -575.369)">
    <g id="Group_4975-2" data-name="Group 4975" transform="translate(674.768 575.369)">
      <path id="Path_34218" data-name="Path 34218" d="M688.264,652.649a5.574,5.574,0,0,0-1.638-2.719,6.671,6.671,0,0,0-8.919,0,5.576,5.576,0,0,0-1.638,2.719h12.2m-12.2,1.3a1.289,1.289,0,0,1-1.26-1.585,6.855,6.855,0,0,1,2.02-3.378,7.965,7.965,0,0,1,10.682,0,6.854,6.854,0,0,1,2.02,3.377,1.289,1.289,0,0,1-1.26,1.585Z" transform="translate(-674.768 -638.125)" fill="#2198fa"/>
      <path id="Path_34219" data-name="Path 34219" d="M705.22,575.369a4.165,4.165,0,1,0,4.165,4.165A4.17,4.17,0,0,0,705.22,575.369Zm0,7.068a2.9,2.9,0,1,1,2.9-2.9A2.906,2.906,0,0,1,705.22,582.437Z" transform="translate(-697.822 -575.369)" fill="#2198fa"/>
    </g>
    <g id="Group_4976" data-name="Group 4976" transform="translate(686.443 576.878)">
      <path id="Path_34220" data-name="Path 34220" d="M780.136,594.449a3.408,3.408,0,1,0-3.408-3.408A3.412,3.412,0,0,0,780.136,594.449Zm0-5.574a2.166,2.166,0,1,1-2.166,2.166A2.169,2.169,0,0,1,780.136,588.876Z" transform="translate(-775.863 -587.634)" fill="#2198fa"/>
      <path id="Path_34221" data-name="Path 34221" d="M779.59,650.681a6.423,6.423,0,0,0-1.451-2.234,6,6,0,0,0-4.3-1.657,6.121,6.121,0,0,0-4.029,1.408l-.115.1,1.052.787.074-.055a5.152,5.152,0,0,1,6.452.342,4.3,4.3,0,0,1,1.144,1.718.618.618,0,0,0,.577.414h.025a.608.608,0,0,0,.57-.823Z" transform="translate(-769.696 -639.514)" fill="#2198fa"/>
    </g>
  </g>
</svg>
