<svg id="Group_5310" data-name="Group 5310" xmlns="http://www.w3.org/2000/svg" width="16.571" height="14.498" viewBox="0 0 16.571 14.498">
  <g id="Group_5308" data-name="Group 5308">
    <g id="Group_5307" data-name="Group 5307">
      <path id="Path_34338" data-name="Path 34338" d="M-392.705,696.317a4.384,4.384,0,0,1-.046-.629c0-2.667,2.4-4.845,5.379-4.917a5.516,5.516,0,0,0-5.7-4.788,5.467,5.467,0,0,0-5.719,5.173,5,5,0,0,0,2.153,4.043l0,0a.809.809,0,0,1,.272.831c-.111.567-.322,1.315-.322,1.315l1.466-.924a1.522,1.522,0,0,1,.953-.206c.078.015.157.028.236.041l.023,0,0,0a6.326,6.326,0,0,0,.947.072C-392.95,696.329-392.827,696.324-392.705,696.317Z" transform="translate(398.793 -685.983)" fill="#36b921"/>
    </g>
    <path id="Path_34339" data-name="Path 34339" d="M-386.055,699.308a.674.674,0,0,1-.667.681.673.673,0,0,1-.666-.681.673.673,0,0,1,.666-.68A.673.673,0,0,1-386.055,699.308Z" transform="translate(390.453 -695.159)" fill="#fff"/>
    <path id="Path_34340" data-name="Path 34340" d="M-369.972,699.308a.673.673,0,0,1-.666.681.673.673,0,0,1-.666-.681.673.673,0,0,1,.666-.68A.673.673,0,0,1-369.972,699.308Z" transform="translate(378.693 -695.159)" fill="#fff"/>
  </g>
  <g id="Group_5309" data-name="Group 5309" transform="translate(6.575 5.329)">
    <path id="Path_34341" data-name="Path 34341" d="M-367.606,713.96a1.755,1.755,0,0,1,.865.2l.674.409a.027.027,0,0,0,.015.008c.018,0,.028-.061-.162-.522a.917.917,0,0,1,.259-1.044h0a4.141,4.141,0,0,0,1.623-3.227c0-2.417-2.238-4.376-5-4.376s-5,1.959-5,4.376,2.238,4.376,5,4.376a5.653,5.653,0,0,0,1.411-.178l0,0A2.385,2.385,0,0,1-367.606,713.96Z" transform="translate(374.33 -705.405)" fill="#36b921"/>
    <path id="Path_34342" data-name="Path 34342" d="M-352.853,715.343a.572.572,0,0,0,.566.578.572.572,0,0,0,.565-.578.571.571,0,0,0-.565-.578A.572.572,0,0,0-352.853,715.343Z" transform="translate(358.626 -712.198)" fill="#fff"/>
    <path id="Path_34343" data-name="Path 34343" d="M-365.974,715.343a.572.572,0,0,0,.565.578.572.572,0,0,0,.566-.578.572.572,0,0,0-.566-.578A.571.571,0,0,0-365.974,715.343Z" transform="translate(368.22 -712.198)" fill="#fff"/>
  </g>
</svg>
