<svg xmlns="http://www.w3.org/2000/svg" xmlns:xlink="http://www.w3.org/1999/xlink" width="20" height="20"  viewBox="0 0 46 46">
  <defs>
    <clipPath id="clip-path">
      <rect id="Rectangle_4602" data-name="Rectangle 4602" width="46" height="46"  transform="translate(0 0.293)" fill="none"/>
    </clipPath>
  </defs>
  <g id="Mask_Group_132" data-name="Mask Group 132" transform="translate(0 -0.293)" clip-path="url(#clip-path)">
    <g id="Group_6982" data-name="Group 6982" transform="translate(5.529 5.491)">
      <g id="Group_6981" data-name="Group 6981" transform="translate(0 0)">
        <g id="Group_6980" data-name="Group 6980">
          <g id="Group_6979" data-name="Group 6979">
            <path id="Path_36798" data-name="Path 36798" d="M-179.51,677.864a17.25,17.25,0,0,0-17.231,17.23,17.1,17.1,0,0,0,2.752,9.339l-2.618,5.766a1.5,1.5,0,0,0,.225,1.6,1.5,1.5,0,0,0,1.145.528,1.5,1.5,0,0,0,.4-.054l7.212-1.979a17.228,17.228,0,0,0,8.116,2.032,17.25,17.25,0,0,0,17.231-17.231A17.25,17.25,0,0,0-179.51,677.864Zm0,31.452a14.209,14.209,0,0,1-7.161-1.936,1.5,1.5,0,0,0-.759-.205,1.512,1.512,0,0,0-.4.053l-4.712,1.293,1.641-3.615a1.505,1.505,0,0,0-.15-1.5,14.114,14.114,0,0,1-2.683-8.309,14.237,14.237,0,0,1,14.221-14.221,14.237,14.237,0,0,1,14.222,14.221A14.238,14.238,0,0,1-179.51,709.316Z" transform="translate(196.741 -677.864)" fill="#45c022"/>
          </g>
          <path id="Shape" d="M12.138,21.083H8.971a1.055,1.055,0,0,1-1-.716l-.664-1.992-1.876.938a1.06,1.06,0,0,1-.466.109,1.047,1.047,0,0,1-.746-.309L1.972,16.866a1.056,1.056,0,0,1-.2-1.2l.939-1.876L.717,13.125a1.055,1.055,0,0,1-.717-1V8.96a1.054,1.054,0,0,1,.717-.99L2.71,7.305,1.771,5.429a1.054,1.054,0,0,1,.2-1.212L4.217,1.972a1.054,1.054,0,0,1,1.2-.2l1.876.939L7.959.717a1.053,1.053,0,0,1,1-.717h3.165a1.054,1.054,0,0,1,.99.717l.664,1.992,1.876-.939a1.061,1.061,0,0,1,.466-.109,1.046,1.046,0,0,1,.746.309l2.246,2.245a1.055,1.055,0,0,1,.2,1.2l-.938,1.876,1.992.664a1.05,1.05,0,0,1,.716,1v3.163a1.054,1.054,0,0,1-.716.99l-1.992.664.938,1.876a1.053,1.053,0,0,1-.2,1.212l-2.246,2.246a1.054,1.054,0,0,1-1.191.2L13.8,18.374l-.663,1.992A1.052,1.052,0,0,1,12.138,21.083ZM7.293,16.252a2.109,2.109,0,0,1,2,1.458l.422,1.265H11.4l.422-1.265a2.106,2.106,0,0,1,2.94-1.222l1.171.632,1.159-1.16-.6-1.2a2.108,2.108,0,0,1,1.222-2.973l1.265-.421V9.688L17.71,9.266a2.108,2.108,0,0,1-1.222-2.941l.632-1.17L15.96,4l-1.2.6a2.108,2.108,0,0,1-2.973-1.223l-.421-1.265H9.72L9.3,3.373A2.109,2.109,0,0,1,6.325,4.6L5.155,4,4,5.155l.6,1.17A2.107,2.107,0,0,1,3.373,9.3L2.108,9.72v1.645l1.265.421A2.108,2.108,0,0,1,4.6,14.758l-.632,1.171,1.159,1.159,1.2-.6A2.117,2.117,0,0,1,7.293,16.252Zm3.249-1.494a4.217,4.217,0,1,1,4.217-4.217A4.221,4.221,0,0,1,10.541,14.758Zm0-6.325a2.108,2.108,0,1,0,2.108,2.108A2.111,2.111,0,0,0,10.541,8.433Z" transform="translate(6.687 6.691)" fill="#45c022"/>
        </g>
      </g>
    </g>
  </g>
</svg>
