<svg xmlns="http://www.w3.org/2000/svg" width="14.936" height="12.936" viewBox="0 0 14.936 12.936">
  <g id="icon_forward" data-name="icon/forward" transform="translate(0 0)">
    <path id="Path" d="M1.05,0A.983.983,0,0,0,.819.026,1.025,1.025,0,0,0,0,1.021V2.147A7.911,7.911,0,0,0,7.553,9.918l.225.011V11.9a1.026,1.026,0,0,0,.548.9l.116.054a1.068,1.068,0,0,0,1.139-.239l5.054-5.066a1.014,1.014,0,0,0,0-1.441L9.581,1.051A1.067,1.067,0,0,0,8.441.814a1.025,1.025,0,0,0-.663.958V3.743H7.322a6.139,6.139,0,0,1-3.032-.792A5.822,5.822,0,0,1,2.114.788L2,.573A1.074,1.074,0,0,0,1.05,0Zm7,9A7,7,0,0,1,.935,2.147V1.021c0-.03.026-.067.1-.085H1.05A.137.137,0,0,1,1.167,1,6.873,6.873,0,0,0,7.322,4.678H8.713V1.771a.1.1,0,0,1,.068-.086.127.127,0,0,1,.048-.009.129.129,0,0,1,.09.035l5.055,5.067a.081.081,0,0,1,0,.12L8.918,11.965A.129.129,0,0,1,8.829,12a.126.126,0,0,1-.047-.009.1.1,0,0,1-.068-.086V9Z" transform="translate(14.935 12.936) rotate(180)" fill="#444"/>
  </g>
</svg>
