  <defs>
    <clipPath id="clip-path">
      <rect id="Background" width="16.8" height="16.8" transform="translate(0 -0.223)" fill="none"/>
    </clipPath>
  </defs>



<svg xmlns="http://www.w3.org/2000/svg"  width="16.8" height="16.8"  fill="currentColor"
                                className="bi bi-person" viewBox="0 0 16 16">
  <g id="bell" transform="translate(0 0.223)" clip-path="url(#clip-path)">
    <path id="Shape" d="M5.664,13.818a2.829,2.829,0,0,1-2.733-2.044H.708A.7.7,0,0,1,0,11.082V9.7A2.087,2.087,0,0,1,1.416,7.743V5.54a4.173,4.173,0,0,1,3.54-4.093V.693a.708.708,0,0,1,1.416,0v.755A4.175,4.175,0,0,1,9.913,5.54v2.2A2.086,2.086,0,0,1,11.328,9.7v1.385a.7.7,0,0,1-.708.693H8.4A2.828,2.828,0,0,1,5.664,13.818ZM4.447,11.774a1.417,1.417,0,0,0,2.436,0ZM2.124,9a.7.7,0,0,0-.708.693v.693h8.5V9.7A.7.7,0,0,0,9.2,9Zm3.54-6.233A2.8,2.8,0,0,0,2.832,5.54V7.618H8.5V5.54A2.8,2.8,0,0,0,5.664,2.771Z" transform="translate(2.832 1.341)" fill="currentColor"/>
  </g>
</svg>
