  <defs>
    <clipPath id="clip-path">
      <rect id="Background" width="16" height="16" fill="currentColor"/>
    </clipPath>
  </defs>



<svg xmlns="http://www.w3.org/2000/svg" width="16" height="16" fill="currentColor"
  className="bi bi-person" viewBox="0 0 16 16">
  <g id="cog" clip-path="url(#clip-path)">
    <g id="noun_Log_Out_1364372" data-name="noun_Log Out_1364372" transform="translate(1.532 1.637)">
      <path id="Path_36658" data-name="Path 36658" d="M33.148,31.387a.382.382,0,0,0,.026-.051.63.63,0,0,0,.022-.07.307.307,0,0,1,.013-.048.641.641,0,0,0,0-.247.251.251,0,0,0-.013-.046.63.63,0,0,0-.022-.07c0-.018-.016-.034-.026-.05a.629.629,0,0,0-.032-.058.587.587,0,0,0-.038-.05c-.013-.016-.019-.027-.03-.04L30.26,27.691a.641.641,0,0,0-.934.878L31.1,30.455H22.961a.641.641,0,1,0,0,1.282H31.1l-1.773,1.884a.641.641,0,1,0,.934.878l2.789-2.964c.011-.013.019-.026.03-.038a.64.64,0,0,0,.04-.051A.631.631,0,0,0,33.148,31.387Z" transform="translate(-20.287 -24.732)" fill="currentColor"/>
      <path id="Path_36659" data-name="Path 36659" d="M11.873,23.007h2.591a2.243,2.243,0,0,0,2.243-2.243V19.687a.641.641,0,1,0-1.282,0v1.081a.961.961,0,0,1-.961.961H11.873a.961.961,0,0,1-.961-.961V12.523a.961.961,0,0,1,.961-.961h2.591a.961.961,0,0,1,.961.961V13.6a.641.641,0,0,0,1.282,0V12.523a2.243,2.243,0,0,0-2.243-2.243H11.873A2.243,2.243,0,0,0,9.63,12.523v8.241A2.243,2.243,0,0,0,11.873,23.007Z" transform="translate(-9.63 -10.28)" fill="currentColor"/>
    </g>
  </g>
</svg>
