<svg xmlns="http://www.w3.org/2000/svg" width="21" height="47" viewBox="0 0 21 47">
  <g id="Group_6687" data-name="Group 6687" transform="translate(-93 -129)">
    <path id="Rectangle_4378" data-name="Rectangle 4378" d="M10,0H21a0,0,0,0,1,0,0V47a0,0,0,0,1,0,0H10A10,10,0,0,1,0,37V10A10,10,0,0,1,10,0Z" transform="translate(93 129)" fill="#d0e9ff"/>
    <g id="expand_more-24px" transform="translate(111.645 144.355) rotate(90)">
      <path id="Path_3108" data-name="Path 3108" d="M16.291,16.291H0V0H16.291Z" fill="none" opacity="0.87"/>
      <path id="Path_3109" data-name="Path 3109" d="M6.423.2,3.789,2.832,1.156.2A.677.677,0,0,0,.2,1.156L3.314,4.271a.676.676,0,0,0,.957,0L7.387,1.156a.676.676,0,0,0,0-.957A.691.691,0,0,0,6.423.2Z" transform="translate(4.353 5.91)" fill="#2198fa"/>
    </g>
  </g>
</svg>
