<svg xmlns="http://www.w3.org/2000/svg" width="29.967" height="29.966" viewBox="0 0 29.967 29.966">
  <g id="Group_5165" data-name="Group 5165" transform="translate(0 0)">
    <g id="Group_5164" data-name="Group 5164">
      <g id="Group_5162" data-name="Group 5162">
        <path id="Path_34292" data-name="Path 34292" d="M-181.758,677.864a15,15,0,0,0-14.983,14.983,14.865,14.865,0,0,0,2.393,8.12l-2.276,5.014a1.307,1.307,0,0,0,.2,1.39,1.308,1.308,0,0,0,1,.459,1.3,1.3,0,0,0,.346-.047l6.271-1.721a14.981,14.981,0,0,0,7.057,1.767,15,15,0,0,0,14.983-14.984A15,15,0,0,0-181.758,677.864Zm0,27.349a12.356,12.356,0,0,1-6.227-1.684,1.306,1.306,0,0,0-.66-.179,1.317,1.317,0,0,0-.346.046l-4.1,1.124,1.427-3.144a1.309,1.309,0,0,0-.131-1.307,12.274,12.274,0,0,1-2.333-7.225,12.38,12.38,0,0,1,12.366-12.366,12.38,12.38,0,0,1,12.367,12.366A12.381,12.381,0,0,1-181.758,705.213Z" transform="translate(196.741 -677.864)" fill="#45c022"/>
      </g>
      <path id="Shape" d="M10.555,18.333H7.8a.917.917,0,0,1-.871-.623l-.578-1.733-1.632.815a.922.922,0,0,1-.406.095.911.911,0,0,1-.648-.268L1.715,14.666a.918.918,0,0,1-.175-1.045l.816-1.632L.624,11.413A.918.918,0,0,1,0,10.542V7.791A.916.916,0,0,1,.624,6.93l1.733-.578L1.54,4.72a.916.916,0,0,1,.175-1.054L3.667,1.714A.916.916,0,0,1,4.712,1.54l1.632.816L6.921.624A.916.916,0,0,1,7.789,0h2.753A.916.916,0,0,1,11.4.624l.578,1.733,1.632-.816a.922.922,0,0,1,.405-.094.91.91,0,0,1,.649.269l1.953,1.952a.917.917,0,0,1,.174,1.045l-.815,1.632,1.732.578a.913.913,0,0,1,.623.87v2.75a.917.917,0,0,1-.623.861l-1.732.578.815,1.632a.916.916,0,0,1-.174,1.054l-1.953,1.953a.916.916,0,0,1-1.036.174L12,15.978l-.577,1.733A.914.914,0,0,1,10.555,18.333Zm-4.214-4.2A1.834,1.834,0,0,1,8.085,15.4l.367,1.1H9.909l.367-1.1a1.832,1.832,0,0,1,2.557-1.063l1.018.55,1.008-1.009-.522-1.045A1.833,1.833,0,0,1,15.4,10.248l1.1-.366V8.424l-1.1-.366A1.833,1.833,0,0,1,14.337,5.5l.55-1.017L13.878,3.474,12.833,4a1.833,1.833,0,0,1-2.585-1.064l-.366-1.1H8.452l-.367,1.1A1.834,1.834,0,0,1,5.5,4L4.483,3.474,3.474,4.483,4,5.5A1.832,1.832,0,0,1,2.933,8.085l-1.1.367v1.43l1.1.366A1.833,1.833,0,0,1,4,12.833l-.55,1.018,1.008,1.008L5.5,14.337A1.841,1.841,0,0,1,6.341,14.132Zm2.825-1.3a3.667,3.667,0,1,1,3.667-3.667A3.671,3.671,0,0,1,9.167,12.833Zm0-5.5A1.833,1.833,0,1,0,11,9.167,1.835,1.835,0,0,0,9.167,7.333Z" transform="translate(5.814 5.818)" fill="#45c022"/>
    </g>
  </g>
</svg>
