<svg xmlns="http://www.w3.org/2000/svg" xmlns:xlink="http://www.w3.org/1999/xlink" width="40" height="40" viewBox="0 0 40 40">
  <defs>
    <clipPath id="clip-path">
      <rect id="Rectangle_4191" data-name="Rectangle 4191" width="40" height="40" transform="translate(934 296)" fill="none"/>
    </clipPath>
  </defs>
  <g id="Mask_Group_51" data-name="Mask Group 51" transform="translate(-934 -296)" clip-path="url(#clip-path)">
    <g id="signal-seeklogo.com" transform="translate(939 300.568)">
      <path id="Path_36723" data-name="Path 36723" d="M11.4.438,11.738,1.8A13.557,13.557,0,0,0,7.969,3.361l-.722-1.2A14.944,14.944,0,0,1,11.4.438Zm7.2,0L18.263,1.8a13.557,13.557,0,0,1,3.769,1.558l.727-1.2A14.944,14.944,0,0,0,18.6.438ZM2.156,7.246A14.942,14.942,0,0,0,.438,11.4l1.364.337A13.555,13.555,0,0,1,3.361,7.968ZM1.406,15a13.568,13.568,0,0,1,.152-2.037l-1.39-.211a15.052,15.052,0,0,0,0,4.495l1.39-.211A13.568,13.568,0,0,1,1.406,15ZM22.753,27.842l-.722-1.2A13.557,13.557,0,0,1,18.267,28.2l.338,1.364a14.944,14.944,0,0,0,4.148-1.718ZM28.594,15a13.568,13.568,0,0,1-.152,2.037l1.39.211a15.052,15.052,0,0,0,0-4.495l-1.39.211A13.568,13.568,0,0,1,28.594,15Zm.968,3.6L28.2,18.261a13.555,13.555,0,0,1-1.559,3.768l1.2.727A14.942,14.942,0,0,0,29.562,18.6ZM17.037,28.442a13.691,13.691,0,0,1-4.073,0l-.211,1.39a15.055,15.055,0,0,0,4.5,0Zm8.906-5.378a13.642,13.642,0,0,1-2.88,2.878l.834,1.132A15.023,15.023,0,0,0,27.075,23.9ZM23.063,4.057a13.642,13.642,0,0,1,2.88,2.88l1.132-.844a15.023,15.023,0,0,0-3.169-3.169ZM4.057,6.937a13.642,13.642,0,0,1,2.88-2.88L6.094,2.925A15.023,15.023,0,0,0,2.925,6.093Zm23.787.309-1.2.722A13.555,13.555,0,0,1,28.2,11.732l1.364-.337a14.942,14.942,0,0,0-1.718-4.148ZM12.963,1.559a13.691,13.691,0,0,1,4.073,0l.211-1.39a15.055,15.055,0,0,0-4.5,0ZM4.779,27.446l-2.9.677.677-2.9L1.184,24.9.506,27.8a1.406,1.406,0,0,0,1.69,1.69l2.9-.666Zm-3.3-3.8,1.369.319.469-2.013A13.534,13.534,0,0,1,1.8,18.261L.438,18.6a14.886,14.886,0,0,0,1.383,3.565Zm6.563,3.047-2.013.469.319,1.369,1.481-.345a14.888,14.888,0,0,0,3.565,1.383l.338-1.364a13.536,13.536,0,0,1-3.68-1.521ZM15,2.812A12.187,12.187,0,0,0,4.688,21.484l-1.172,5,5-1.172A12.187,12.187,0,1,0,15,2.812Z" transform="translate(0)" fill="#3a76f0"/>
    </g>
  </g>
</svg>
