<svg xmlns="http://www.w3.org/2000/svg" width="14.4" height="13.745" viewBox="0 0 14.4 13.745">
  <g id="noun_Star_1594176" transform="translate(-29.936 -31.1)">
    <g id="Group_5317" data-name="Group 5317" transform="translate(29.936 31.1)">
      <g id="Group_5316" data-name="Group 5316" transform="translate(0 0)">
        <path id="Path_34344" data-name="Path 34344" d="M36.816,42.966a.765.765,0,0,1,.64,0l3.29,1.73c.7.369,1.16.033,1.027-.746l-.628-3.663a.765.765,0,0,1,.2-.609L44,37.083c.567-.553.39-1.093-.392-1.207l-3.678-.534a.765.765,0,0,1-.518-.376L37.77,31.633c-.35-.71-.919-.709-1.269,0l-1.645,3.333a.765.765,0,0,1-.518.376l-3.678.534c-.784.114-.958.655-.392,1.207l2.662,2.594a.765.765,0,0,1,.2.609L32.5,43.95c-.134.781.327,1.114,1.027.746Z" transform="translate(-29.936 -31.1)" fill="#e6b65f"/>
      </g>
    </g>
  </g>
</svg>
