  <defs>
    <clipPath id="clip-path">
      <rect id="Background" width="16" height="16" transform="translate(0 0.102)" fill="#444"/>
    </clipPath>
  </defs>


  
<svg xmlns="http://www.w3.org/2000/svg" width="16" height="16" fill="currentColor"
                                className="bi bi-person" viewBox="0 0 16 16">
  <g id="cog" transform="translate(0 -0.102)" clip-path="url(#clip-path)">
    <path id="Shape" d="M7.9,13.73H5.842a.687.687,0,0,1-.652-.466l-.433-1.3-1.222.611a.69.69,0,0,1-.3.071.682.682,0,0,1-.485-.2L1.284,10.984a.687.687,0,0,1-.131-.783l.611-1.222-1.3-.432A.687.687,0,0,1,0,7.895V5.835A.686.686,0,0,1,.467,5.19l1.3-.433L1.153,3.535a.686.686,0,0,1,.131-.789L2.746,1.284a.686.686,0,0,1,.783-.131l1.222.611.433-1.3A.686.686,0,0,1,5.833,0H7.895A.686.686,0,0,1,8.54.467l.433,1.3,1.222-.611a.691.691,0,0,1,.3-.071.681.681,0,0,1,.486.2l1.463,1.462a.687.687,0,0,1,.13.783L11.966,4.75l1.3.433a.684.684,0,0,1,.466.652v2.06a.686.686,0,0,1-.466.645l-1.3.433.611,1.222a.686.686,0,0,1-.13.789l-1.463,1.463a.686.686,0,0,1-.776.13l-1.222-.611-.432,1.3A.685.685,0,0,1,7.9,13.73ZM4.749,10.584a1.373,1.373,0,0,1,1.306.949l.275.824H7.421l.275-.824a1.372,1.372,0,0,1,1.915-.8l.762.412.755-.756-.391-.783a1.373,1.373,0,0,1,.8-1.936l.824-.274V6.309l-.824-.274a1.373,1.373,0,0,1-.8-1.916l.412-.762L10.393,2.6l-.783.392a1.373,1.373,0,0,1-1.936-.8L7.4,1.373H6.33L6.055,2.2a1.373,1.373,0,0,1-1.936.8L3.357,2.6,2.6,3.357l.392.762a1.372,1.372,0,0,1-.8,1.936l-.824.275V7.4l.824.274a1.373,1.373,0,0,1,.8,1.936l-.412.762.755.755.783-.391A1.378,1.378,0,0,1,4.749,10.584Zm2.116-.973A2.746,2.746,0,1,1,9.611,6.865,2.749,2.749,0,0,1,6.865,9.611Zm0-4.119A1.373,1.373,0,1,0,8.238,6.865,1.375,1.375,0,0,0,6.865,5.492Z" transform="translate(1.373 1.362)" fill="currentColor"/>
  </g>
</svg>
