<svg id="cog" xmlns="http://www.w3.org/2000/svg"  width="16.801" height="16.801" viewBox="0 0 16.801 16.801">
  <defs>
    <clipPath id="clip-path">
      <rect id="Background" width="16.801" height="16.801" fill="none"/>
    </clipPath>
  </defs>
  <rect id="Background-2" data-name="Background" width="16.801" height="16.801" fill="none"/>
  <g id="cog-2" data-name="cog" clip-path="url(#clip-path)">
    <g id="Group_5002" data-name="Group 5002" transform="translate(1.232 2.344)">
      <g id="Group_5002-2" data-name="Group 5002">
        <path id="Path_34249" data-name="Path 34249" d="M162.835,375.786a2.038,2.038,0,0,1,.679,3.96v5.411a.679.679,0,0,1-1.353.08l0-.08v-5.411a2.039,2.039,0,0,1,.679-3.96Zm5.18-2.766a6.793,6.793,0,0,1,0,9.607.679.679,0,0,1-.96-.961,5.438,5.438,0,0,0,0-7.686.679.679,0,0,1,.96-.961Zm-1.985,1.805a4.417,4.417,0,0,1,0,6.245.679.679,0,0,1-.96-.961,3.055,3.055,0,0,0,0-4.323.679.679,0,0,1,.96-.961Zm-7.415-1.805a.68.68,0,0,1,0,.961,5.434,5.434,0,0,0,0,7.686.679.679,0,1,1-.96.961,6.8,6.8,0,0,1,0-9.607A.678.678,0,0,1,158.615,373.021Zm1.986,1.805a.679.679,0,0,1,0,.961,3.057,3.057,0,0,0,0,4.323.679.679,0,0,1-.96.961,4.415,4.415,0,0,1,0-6.245A.678.678,0,0,1,160.6,374.826Zm2.235,2.319a.679.679,0,1,0,.679.68A.679.679,0,0,0,162.835,377.145Z" transform="translate(-155.667 -372.822)" fill="#8b8b8b"/>
      </g>
    </g>
  </g>
</svg>
