<svg id="store" xmlns="http://www.w3.org/2000/svg" xmlns:xlink="http://www.w3.org/1999/xlink" width="16.8" height="16.8" viewBox="0 0 16.8 16.8">
  <defs>
    <clipPath id="clip-path">
      <rect id="Background" width="16.8" height="16.8" fill="none"/>
    </clipPath>
  </defs>
  <rect id="Background-2" data-name="Background" width="16.8" height="16.8" fill="none"/>
  <g id="store-2" data-name="store" clip-path="url(#clip-path)">
    <path id="Shape" d="M11.9,14H2.1a.7.7,0,0,1-.7-.7V6.582A2.815,2.815,0,0,1,0,4.2a.411.411,0,0,1,.049-.126,1.092,1.092,0,0,1,0-.133l1.4-3.5A.7.7,0,0,1,2.1,0h9.8l.05,0a.7.7,0,0,1,.65.443l1.4,3.5a1.088,1.088,0,0,1,0,.133A.423.423,0,0,1,14,4.2,2.81,2.81,0,0,1,12.6,6.61V13.3A.7.7,0,0,1,11.9,14ZM5.6,8.4H8.4a.7.7,0,0,1,.7.7v3.5h2.1V7a2.8,2.8,0,0,1-2.1-.967,2.8,2.8,0,0,1-4.2,0A2.8,2.8,0,0,1,2.8,7v5.6H4.9V9.1A.7.7,0,0,1,5.6,8.4Zm.7,1.4v2.8H7.7V9.8H6.3ZM2.576,1.4h0L1.4,4.307A1.4,1.4,0,0,0,2.8,5.655h.055A1.4,1.4,0,0,0,4.2,4.2a.7.7,0,1,1,1.4,0,1.4,1.4,0,0,0,2.8,0,.7.7,0,1,1,1.4,0,1.4,1.4,0,0,0,2.8.1L11.424,1.4H2.576Z" transform="translate(1.4 1.398)" fill="#8b8b8b"/>
  </g>
</svg>
