<svg xmlns="http://www.w3.org/2000/svg"  width="18" height="18" viewBox="0 0 25 25">
            <defs>
                <clipPath id="clip-path">
                    <rect id="Background" width="18" height="18" fill="none"/>
                </clipPath>
            </defs>
            <g id="trash-alt">
                <g id="Group_5689" data-name="Group 5689" transform="translate(9.749 -2.748) rotate(45)">
                    <path id="Path_34498" data-name="Path 34498" d="M18.87,0H10.783A2.7,2.7,0,0,0,8.876.788L.789,8.876a2.7,2.7,0,0,0,0,3.811l8.087,8.087a2.7,2.7,0,0,0,3.811,0l8.087-8.087a2.7,2.7,0,0,0,.792-1.9V2.7A2.7,2.7,0,0,0,18.87,0Zm0,10.783L10.783,18.87,2.7,10.783,10.783,2.7H18.87Z" transform="translate(0 0)" fill="#f1b44c"/>
                </g>
            </g>
        </svg>