<svg xmlns="http://www.w3.org/2000/svg" xmlns:xlink="http://www.w3.org/1999/xlink" width="20" height="20"  viewBox="0 0 40 40">
  <defs>
    <clipPath id="clip-path">
      <rect id="Rectangle_4187" data-name="Rectangle 4187" width="40" height="40" transform="translate(934 296)" fill="none"/>
    </clipPath>
  </defs>
  <g id="Mask_Group_49" data-name="Mask Group 49" transform="translate(-934 -296)" clip-path="url(#clip-path)">
    <g id="kakaotalk-seeklogo.com" transform="translate(939 300.568)">
      <path id="Path_36724" data-name="Path 36724" d="M30,27.656A2.344,2.344,0,0,1,27.656,30H2.344A2.344,2.344,0,0,1,0,27.656V2.344A2.344,2.344,0,0,1,2.344,0H27.656A2.344,2.344,0,0,1,30,2.344Z" fill="#ffe812"/>
      <path id="Path_36725" data-name="Path 36725" d="M36.188,36C29.456,36,24,40.3,24,45.609c0,3.431,2.281,6.442,5.713,8.142-.187.644-1.2,4.142-1.24,4.417,0,0-.024.206.109.285a.368.368,0,0,0,.291.018c.383-.054,4.446-2.908,5.15-3.4a15.441,15.441,0,0,0,2.165.151c6.731,0,12.188-4.3,12.188-9.609S42.919,36,36.188,36Z" transform="translate(-21.188 -31.781)"/>
      <path id="Path_36726" data-name="Path 36726" d="M51.74,99.726a.689.689,0,0,1-.7-.671V94.877h-1.1a.688.688,0,1,1,0-1.377h3.6a.688.688,0,1,1,0,1.377h-1.1v4.177A.689.689,0,0,1,51.74,99.726Zm6.165-.009a.577.577,0,0,1-.585-.311l-.348-.911H54.828l-.348.912a.576.576,0,0,1-.585.31,1.073,1.073,0,0,1-.447-.1c-.194-.089-.38-.335-.167-1l1.682-4.427a.98.98,0,0,1,1.874,0l1.681,4.425c.214.665.028.911-.166,1a1.075,1.075,0,0,1-.447.1Zm-1.3-2.467-.7-2-.7,2Zm3.048,2.374a.66.66,0,0,1-.674-.645V94.2a.718.718,0,0,1,1.436,0v4.131h1.494a.645.645,0,1,1,0,1.289Zm3.906.093a.7.7,0,0,1-.7-.7V94.2a.7.7,0,0,1,1.406,0v1.511l1.962-1.962a.546.546,0,0,1,.39-.156.712.712,0,0,1,.691.653.548.548,0,0,1-.155.428l-1.6,1.6,1.731,2.293a.7.7,0,0,1-1.122.847L64.5,97.235l-.244.244v1.534A.7.7,0,0,1,63.557,99.716Z" transform="translate(-43.479 -82.543)" fill="#ffe812"/>
    </g>
  </g>
</svg>
