<svg xmlns="http://www.w3.org/2000/svg" xmlns:xlink="http://www.w3.org/1999/xlink" width="20" height="20"  viewBox="0 0 40 40">
  <defs>
    <clipPath id="clip-path">
      <rect id="Rectangle_4181" data-name="Rectangle 4181" width="40" height="40" transform="translate(934 296)" fill="none"/>
    </clipPath>
    <clipPath id="clip-path-2">
      <rect id="Rectangle_4553" data-name="Rectangle 4553" width="30" height="30" fill="none"/>
    </clipPath>
  </defs>
  <g id="Mask_Group_48" data-name="Mask Group 48" transform="translate(-934 -296)" clip-path="url(#clip-path)">
    <g id="Group_6809" data-name="Group 6809" transform="translate(939 301)">
      <g id="Group_6809-2" data-name="Group 6809" clip-path="url(#clip-path-2)">
        <path id="Path_36720" data-name="Path 36720" d="M6.14,0H23.86A6.158,6.158,0,0,1,30,6.14V23.86A6.158,6.158,0,0,1,23.86,30H6.14A6.158,6.158,0,0,1,0,23.86V6.14A6.158,6.158,0,0,1,6.14,0" fill="#3ace01"/>
        <path id="Path_36721" data-name="Path 36721" d="M60.929,62.577c6.079,0,11.006,3.946,11.006,8.813a7.532,7.532,0,0,1-1.643,4.634,2.274,2.274,0,0,1-.2.255l-.006.007a9.542,9.542,0,0,1-1.2,1.194c-3.044,2.813-8.053,6.163-8.715,5.646-.575-.449.947-2.646-.809-3.012-.122-.014-.245-.029-.366-.046h0c-5.156-.732-9.071-4.339-9.071-8.677,0-4.868,4.928-8.813,11.006-8.813" transform="translate(-45.958 -57.607)" fill="#fff"/>
        <path id="Path_36722" data-name="Path 36722" d="M101.449,146.293h2.22a.576.576,0,0,0,.574-.574v-.048a.576.576,0,0,0-.574-.574h-1.6v-3.636a.576.576,0,0,0-.574-.574h-.048a.576.576,0,0,0-.574.574v4.257a.576.576,0,0,0,.574.574m13.755-2.669v-.048a.576.576,0,0,0-.574-.574h-1.6v-.909h1.6a.576.576,0,0,0,.574-.574v-.048a.576.576,0,0,0-.574-.574h-2.22a.576.576,0,0,0-.574.574v4.257a.576.576,0,0,0,.574.574h2.22a.576.576,0,0,0,.574-.574v-.048a.576.576,0,0,0-.574-.574h-1.6V144.2h1.6a.575.575,0,0,0,.574-.574m-4.269,2.5h0a.573.573,0,0,0,.166-.4v-4.257a.576.576,0,0,0-.574-.574h-.048a.576.576,0,0,0-.574.574v2.5l-2.075-2.783a.575.575,0,0,0-.5-.29h-.048a.576.576,0,0,0-.574.574v4.257a.576.576,0,0,0,.574.574h.048a.576.576,0,0,0,.574-.574v-2.546l2.09,2.854a.585.585,0,0,0,.042.058h0a.482.482,0,0,0,.223.165.569.569,0,0,0,.218.043h.048a.569.569,0,0,0,.268-.067.405.405,0,0,0,.14-.1m-5.655.171h.048a.576.576,0,0,0,.574-.574v-4.257a.576.576,0,0,0-.574-.574h-.048a.576.576,0,0,0-.574.574v4.257a.576.576,0,0,0,.574.574" transform="translate(-92.864 -129.698)" fill="#3ace01"/>
      </g>
    </g>
  </g>
</svg>
