<svg id="Group_6823" data-name="Group 6823" xmlns="http://www.w3.org/2000/svg" xmlns:xlink="http://www.w3.org/1999/xlink" width="34.776" height="34.777" viewBox="0 0 34.776 34.777">
  <defs>
    <clipPath id="clip-path">
      <rect id="Rectangle_4571" data-name="Rectangle 4571" width="34.777" height="34.777" fill="#fff"/>
    </clipPath>
  </defs>
  <g id="Group_6822" data-name="Group 6822" clip-path="url(#clip-path)">
    <path id="Path_36773" data-name="Path 36773" d="M30.091,0H4.686A4.686,4.686,0,0,0,0,4.686v25.4a4.686,4.686,0,0,0,4.686,4.686H17.215l.022-12.427H14.008a.761.761,0,0,1-.762-.759l-.016-4.006a.762.762,0,0,1,.762-.765h3.223V12.949c0-4.492,2.743-6.938,6.75-6.938h3.288a.762.762,0,0,1,.762.762v3.378a.762.762,0,0,1-.761.762H25.237c-2.179,0-2.6,1.035-2.6,2.555V16.82h4.788a.761.761,0,0,1,.756.851l-.475,4.006a.762.762,0,0,1-.756.672H22.657l-.022,12.427h7.455a4.686,4.686,0,0,0,4.686-4.686V4.686A4.686,4.686,0,0,0,30.091,0" fill="#fff"/>
  </g>
</svg>
